<svg height="511pt" viewBox="0 -16 511.99988 511" width="511pt" xmlns="http://www.w3.org/2000/svg"><path d="m512 268.847656c0 69.539063-44.949219 126.445313-99.886719 126.445313h-58.605469c-15.222656 0-29.6875-4.371094-42.628906-12.175781-37.367187-22.496094-57.257812-69.175782-57.257812-114.269532 0-33.03125 12.269531-62.605468 31.332031-81.773437 10.964844-11.035157 19.585937-25.003907 25.449219-40.636719 4.226562-11.253906 7.027344-23.355469 8.269531-35.875.488281-4.878906.734375-9.832031.734375-14.816406 0-44.140625 28.539062-80.25 63.40625-80.25 17.4375 0 33.289062 9.023437 44.78125 23.574218 11.492188 14.546876 18.621094 34.605469 18.621094 56.675782 0 35.46875 12.527344 69.257812 34.460937 91.328125 9.523438 9.585937 17.355469 21.769531 22.808594 35.6875 5.449219 13.925781 8.515625 29.570312 8.515625 46.085937zm0 0" fill="#35e298"/><path d="m377.421875 228.761719c-.777344 23.914062-7.664063 47.339843-19.425781 68.695312l-47.113282 85.660157c-37.371093-22.496094-57.261718-69.175782-57.261718-114.269532 0-33.03125 12.269531-62.605468 31.335937-81.773437 10.960938-11.035157 19.582031-25.003907 25.449219-40.636719 4.226562-11.253906 7.023438-23.355469 8.265625-35.875 18.671875 10.023438 38.597656 28.671875 50.515625 63.289062 6.144531 17.867188 8.847656 36.421876 8.234375 54.910157zm0 0" fill="#1ab975"/><path d="m460.082031 273.199219c0 41.566406-33.695312 75.265625-75.261719 75.265625-41.566406 0-75.265624-33.699219-75.265624-75.265625 0-41.566407 33.699218-75.265625 75.265624-75.265625 41.566407 0 75.261719 33.699218 75.261719 75.265625zm0 0" fill="#ae583e"/><path d="m375.433594 198.515625c-66.433594 8.265625-89.535156 93.128906-36.785156 134.121094l19.347656-35.179688c11.757812-21.355469 18.648437-44.78125 19.425781-68.695312.332031-10.105469-.320313-20.226563-1.988281-30.246094zm0 0" fill="#7c3f2c"/><path d="m162.410156 70.675781c-3.933594-17.910156-24.21875-82.765625-109.925781-68.011719-2.496094.429688-3.890625 3.132813-2.800781 5.421876 8.878906 18.644531 46.535156 87.746093 109.21875 68.523437 2.535156-.777344 4.074218-3.34375 3.507812-5.933594zm0 0" fill="#1ed688"/><path d="m158.894531 76.605469c-62.675781 19.230469-100.332031-49.871094-109.210937-68.519531-1.085938-2.292969.300781-4.996094 2.796875-5.421876 7.335937-1.261718 14.207031-1.945312 20.621093-2.113281 13.148438 23.199219 42.585938 63.695313 86.6875 60.574219 1.25 3.835938 2.089844 7.128906 2.621094 9.554688.570313 2.589843-.976562 5.148437-3.515625 5.925781zm0 0" fill="#1ab975"/><path d="m166.625 127.734375c-4.292969 0-7.769531-3.476563-7.769531-7.769531v-110.980469c0-4.292969 3.476562-7.769531 7.769531-7.769531s7.769531 3.476562 7.769531 7.769531v110.980469c0 4.292968-3.476562 7.769531-7.769531 7.769531zm0 0" fill="#c0694e"/><path d="m313.71875 297.453125-54.6875 99.433594c-14.144531 23.171875-46.324219 31.589843-71.714844 18.347656-13.011718-6.785156-28.367187-6.785156-41.394531 0-24.804687 12.9375-57.179687 5.414063-71.703125-18.347656l-54.699219-99.433594c-22.402343-40.714844-24.652343-84.398437-11.1875-123.601563 16.804688-48.847656 49.589844-65.890624 72.238281-71.777343 10.394532-2.703125 18.664063-3.054688 22.28125-3.054688 1.28125 0 1.976563.039063 1.976563.039063 10.238281 0 20.050781 1.722656 29.097656 4.859375 9.035157 3.140625 17.324219 7.710937 24.523438 13.398437 2.351562 2.011719 5.265625 3.027344 8.175781 3.027344 2.914062 0 5.824219-1.015625 8.175781-3.027344 7.203125-5.6875 15.480469-10.257812 24.527344-13.398437 9.042969-3.136719 18.847656-4.859375 29.09375-4.859375 0 0 69.246094-4.414063 96.488281 74.792968 13.570313 39.457032 11.089844 83.148438-11.191406 123.601563zm0 0" fill="#c42d2d"/><path d="m313.71875 297.453125-54.6875 99.433594c-14.144531 23.171875-46.324219 31.589843-71.714844 18.347656-13.011718-6.785156-28.367187-6.785156-41.394531 0-6.980469 3.644531-14.449219 5.609375-21.746094 6.125-.417969-.832031-43.84375-96.335937-54.917969-120.683594-33.113281-72.796875-20.273437-153.917969 11.3125-198.601562 10.394532-2.703125 18.664063-3.054688 22.28125-3.054688 1.28125 0 1.976563.039063 1.976563.039063 10.238281 0 20.050781 1.722656 29.097656 4.859375 9.035157 3.140625 17.324219 7.710937 24.523438 13.398437 2.351562 2.011719 5.265625 3.027344 8.175781 3.027344 2.914062 0 5.824219-1.015625 8.175781-3.027344 7.203125-5.6875 15.480469-10.257812 24.527344-13.398437 9.042969-3.136719 18.847656-4.859375 29.09375-4.859375 0 0 69.246094-4.414063 96.488281 74.792968 13.570313 39.457032 11.089844 83.148438-11.191406 123.601563zm0 0" fill="#f44545"/><path d="m67.976562 322.203125c-8.722656 4.601563-12.0625 15.402344-7.460937 24.128906 5.402344 10.230469 12.226563 19.117188 19.777344 26.808594l-59.574219-6.636719c-9.800781-1.089844-18.632812 5.96875-19.726562 15.773438-1.0898442 9.800781 5.972656 18.632812 15.773437 19.726562l59.570313 6.636719c-9.058594 5.84375-17.671876 13.011719-25.191407 21.800781-6.410156 7.496094-5.53125 18.769532 1.964844 25.179688s18.769531 5.53125 25.179687-1.964844c20.40625-23.859375 57.402344-34.09375 88.707032-35.117188 12.425781-.402343 20.679687-13.117187 15.925781-24.628906-2.148437-5.226562-6.777344-9.324218-12.613281-10.628906-.566406-.128906-57.167969-13.761719-78.203125-53.621094-4.605469-8.722656-15.40625-12.0625-24.128907-7.457031zm0 0" fill="#1ab975"/><path d="m510.023438 439.089844c-2.550782 22.878906-21.875 40.203125-44.898438 40.246094-132.007812.257812-39.746094.082031-252.214844.488281-44.140625.082031-78.53125-38.277344-73.640625-82.136719 1.078125-9.636719 3.949219-18.601562 8.21875-26.621094 12.660157-23.75 37.707031-39.167968 65.175781-39.167968 5.449219 0 11.003907.601562 16.566407 1.878906 187.203125 42.769531 201.726562 46.085937 213.886719 48.863281l15.273437 3.492187 16.722656 3.824219c18.246094 4.15625 31.582031 18.917969 34.554688 36.585938.695312 4.050781.832031 8.269531.355469 12.546875zm0 0" fill="#ffa90b"/><path d="m509.667969 426.542969c-8.289063 10.839843-21.34375 17.75-35.871094 17.769531-131.996094.261719-39.738281.085938-252.203125.488281-41.300781.074219-74.054688-33.488281-74.105469-73.734375 12.660157-23.75 37.703125-39.167968 65.171875-39.167968 2.953125 0 5.929688.175781 8.921875.550781 2.539063.300781 5.097657.746093 7.648438 1.328125l7.636719 1.738281c197.734374 45.1875 21.457031 4.902344 206.25 47.125l15.269531 3.492187 16.726562 3.824219c18.246094 4.15625 31.582031 18.917969 34.554688 36.585938zm0 0" fill="#ffb52d"/><g fill="#f29500"><path d="m458.386719 386.132812-5.894531 60.066407c-.445313 3.96875-3.800782 6.910156-7.707032 6.910156-.292968 0-.582031-.019531-.871094-.050781-4.269531-.476563-7.335937-4.308594-6.871093-8.578125l6.074219-61.839844zm0 0"/><path d="m246.171875 430.53125-5.222656 49.238281-15.636719.03125 5.410156-50.988281c.476563-4.269531 4.308594-7.347656 8.578125-6.871094 4.269531.476563 7.347657 4.320313 6.871094 8.589844zm0 0"/><path d="m388.394531 446.375-3.449219 33.117188-15.636718.03125 3.636718-34.867188c.476563-4.269531 4.320313-7.335938 8.589844-6.859375 4.257813.476563 7.335938 4.308594 6.859375 8.578125zm0 0"/><path d="m326.867188 356.085938-2.328126 26.097656c-.445312 3.96875-3.804687 6.914062-7.710937 6.914062-.289063 0-.578125-.023437-.871094-.054687-4.269531-.476563-7.34375-4.308594-6.867187-8.578125l2.496094-27.871094zm0 0"/><path d="m296.34375 448.074219-3.265625 31.59375-15.632813.03125 3.449219-33.34375c.476563-4.269531 4.332031-7.347657 8.589844-6.871094s7.335937 4.320313 6.859375 8.589844zm0 0"/><path d="m236.867188 335.515625-5.378907 48.246094c-.445312 3.96875-3.8125 6.910156-7.71875 6.910156-.289062 0-.578125-.019531-.871093-.050781-4.265626-.476563-7.335938-4.324219-6.859376-8.582032l5.472657-49.125c.019531-.152343.042969-.308593.074219-.464843 2.535156.300781 5.097656.746093 7.644531 1.328125zm0 0"/></g></svg>